<svg width="28" height="28" viewBox="0 0 28 28" fill="none" xmlns="http://www.w3.org/2000/svg">
<g clip-path="url(#clip0_2_1032)">
<path d="M5.83333 28L22.1667 28C23.7132 27.9981 25.1958 27.383 26.2894 26.2894C27.383 25.1958 27.9981 23.7132 28 22.1667L28 5.83333C27.9981 4.28681 27.383 2.80415 26.2894 1.71059C25.1959 0.617029 23.7132 0.00185357 22.1667 -5.09966e-07L5.83334 -1.93787e-06C4.28681 0.00185187 2.80415 0.617027 1.71059 1.71059C0.617031 2.80415 0.00185602 4.2868 1.93787e-06 5.83333L5.09966e-07 22.1667C0.00185432 23.7132 0.617029 25.1958 1.71059 26.2894C2.80415 27.383 4.28681 27.9981 5.83333 28ZM14 9.33333C14.854 9.33246 15.6787 9.64458 16.3182 10.2107C16.6997 10.5502 17.0613 10.8803 17.2982 11.1172L20.65 14.4118C20.8563 14.6314 20.9696 14.9222 20.9663 15.2235C20.963 15.5247 20.8433 15.813 20.6322 16.028C20.4212 16.243 20.1351 16.368 19.834 16.3768C19.5329 16.3857 19.24 16.2777 19.0167 16.0755L15.6567 12.775C15.4373 12.5568 15.1107 12.2605 14.7712 11.9583C14.558 11.7703 14.2836 11.6666 13.9994 11.6666C13.7152 11.6666 13.4408 11.7703 13.2277 11.9583C12.8893 12.2593 12.5627 12.5557 12.3503 12.7668L8.98334 16.0755C8.87572 16.1901 8.74606 16.2817 8.60215 16.3449C8.45824 16.4081 8.30304 16.4415 8.14588 16.4433C7.98871 16.445 7.83282 16.415 7.68755 16.3549C7.54229 16.2949 7.41065 16.2062 7.30053 16.094C7.19042 15.9818 7.10411 15.8486 7.04677 15.7023C6.98944 15.5559 6.96226 15.3995 6.96688 15.2424C6.9715 15.0853 7.00782 14.9307 7.07366 14.788C7.13949 14.6453 7.23349 14.5173 7.35 14.4118L10.7088 11.1113C10.9422 10.878 11.3003 10.5513 11.6807 10.2142C12.3197 9.64626 13.1451 9.33281 14 9.33333Z" fill="#0293DE"/>
</g>
<defs>
<clipPath id="clip0_2_1032">
<rect width="28" height="28" fill="white" transform="translate(28 28) rotate(-180)"/>
</clipPath>
</defs>
</svg>
