<svg width="119" height="104" viewBox="0 0 119 104" fill="none" xmlns="http://www.w3.org/2000/svg">
<path d="M28.2324 41.1193C25.0291 40.3088 17.7699 33.0396 17.7699 33.0396C17.7699 33.0396 20.7086 42.8695 19.9029 46.0855C19.0972 49.3015 11.8234 56.5513 11.8234 56.5513C11.8234 56.5513 21.6675 53.6074 24.8721 54.4201C28.0768 55.2328 35.3369 62.4984 35.3369 62.4984C35.3369 62.4984 32.3937 52.6559 33.2039 49.4526C34.0141 46.2492 41.2835 38.9867 41.2835 38.9867C41.2835 38.9867 31.4325 41.9194 28.2324 41.1193Z" fill="white"/>
<path d="M76.3294 30.8936L76.3321 30.8943C77.8702 31.3037 80.0855 31.2569 82.4193 31.0167C84.7912 30.7726 87.4227 30.3119 89.8657 29.8103C91.9236 29.3877 93.8597 28.9335 95.4118 28.5493C94.3 29.6978 92.935 31.143 91.5365 32.7097C89.876 34.5699 88.1567 36.6143 86.7558 38.544C85.3775 40.4426 84.2264 42.3375 83.8119 43.8779C83.3974 45.4183 83.4421 47.6347 83.6817 49.9682C83.9251 52.3399 84.3865 54.9704 84.8893 57.4122C85.3122 59.4655 85.7669 61.3972 86.152 62.9469C85.0048 61.8366 83.5621 60.4744 81.9983 59.0787C80.1385 57.4187 78.0944 55.6998 76.1648 54.299C74.2663 52.9206 72.3715 51.7694 70.831 51.3538C69.2898 50.938 67.0727 50.9821 64.7386 51.2211C62.3663 51.464 59.7351 51.9252 57.2928 52.4279C55.242 52.8501 53.3124 53.3042 51.7636 53.6889C52.874 52.5437 54.2352 51.1043 55.6296 49.5438C57.2906 47.6848 59.0104 45.6408 60.4112 43.7098C61.7894 41.8098 62.9399 39.9117 63.3524 38.365C63.7643 36.8204 63.7189 34.6026 63.479 32.2677C63.2352 29.8951 62.7741 27.2653 62.2717 24.8248C61.8497 22.7751 61.3961 20.847 61.0118 19.2996C62.1587 20.4103 63.6009 21.7728 65.1641 23.1687C67.0236 24.8292 69.0673 26.5486 70.9964 27.9495C72.8945 29.3278 74.789 30.479 76.3294 30.8936Z" stroke="white" stroke-width="2"/>
</svg>
