<svg width="169" height="169" viewBox="0 0 169 169" fill="none" xmlns="http://www.w3.org/2000/svg">
<mask id="mask0_1_846" style="mask-type:luminance" maskUnits="userSpaceOnUse" x="16" y="16" width="136" height="136">
<path d="M64.3757 20.0705C28.822 31.1552 8.98589 68.963 20.0705 104.517C31.1552 140.07 68.963 159.907 104.517 148.822C140.07 137.737 159.907 99.9294 148.822 64.3757C137.737 28.822 99.9294 8.98591 64.3757 20.0705Z" fill="white"/>
</mask>
<g mask="url(#mask0_1_846)">
<path d="M104.381 147.965C139.637 136.973 159.308 99.4815 148.316 64.225C137.324 28.9686 99.8326 9.29815 64.5762 20.2899C29.3197 31.2817 9.64929 68.7733 20.6411 104.03C31.6328 139.286 69.1244 158.957 104.381 147.965Z" fill="#161617"/>
<path d="M24.1332 117.547C32.179 115.038 34.8886 123.729 42.9359 121.22C50.9833 118.711 48.2737 110.02 56.3197 107.512C64.3656 105.003 67.0766 113.694 75.1239 111.185C83.1712 108.676 80.4603 99.9857 88.5076 97.4767C96.5549 94.9679 99.2643 103.659 107.31 101.15C115.356 98.6418 112.648 89.9506 120.696 87.4416C128.743 84.9328 131.452 93.6236 139.5 91.1146C147.547 88.6057 144.838 79.915 152.885 77.4061" stroke="white" stroke-opacity="0.08" stroke-width="2" stroke-miterlimit="10"/>
<path d="M32.2583 143.606C40.3041 141.097 43.0137 149.788 51.061 147.279C59.1083 144.77 56.3987 136.079 64.4447 133.571C72.4907 131.063 75.2014 139.753 83.249 137.244C91.2963 134.735 88.5854 126.045 96.6327 123.536C104.68 121.027 107.389 129.718 115.435 127.209C123.481 124.701 120.773 116.01 128.821 113.501C136.868 110.992 139.577 119.683 147.625 117.174C155.672 114.665 152.963 105.974 161.01 103.465" stroke="white" stroke-opacity="0.08" stroke-width="2" stroke-miterlimit="10"/>
<path d="M16.0102 91.4872C24.056 88.9788 26.7656 97.6694 34.8129 95.1605C42.8603 92.6517 40.1507 83.9609 48.1966 81.4525C56.2426 78.944 58.9534 87.6343 67.0009 85.1254C75.0482 82.6166 72.3373 73.9262 80.3846 71.4174C88.4319 68.9086 91.1413 77.5992 99.1873 75.0907C107.233 72.5823 104.525 63.8911 112.573 61.3823C120.62 58.8735 123.329 67.5641 131.377 65.0552C139.424 62.5464 136.715 53.8556 144.762 51.3468" stroke="white" stroke-opacity="0.08" stroke-width="2" stroke-miterlimit="10"/>
<path d="M3.82263 52.398C11.8685 49.8896 14.578 58.5804 22.6253 56.0714C30.6726 53.5626 27.9632 44.8718 36.0092 42.3633C44.055 39.8549 46.7659 48.5453 54.8132 46.0363C62.8605 43.5275 60.1496 34.8372 68.1969 32.3282C76.2443 29.8194 78.9539 38.5102 86.9996 36.0018C95.0456 33.4933 92.3376 24.8021 100.385 22.2931C108.432 19.7843 111.142 28.4751 119.189 25.9663C127.236 23.4573 124.527 14.7666 132.574 12.2577" stroke="white" stroke-opacity="0.08" stroke-width="2" stroke-miterlimit="10"/>
<path d="M36.3207 156.635C44.3667 154.127 47.0761 162.818 55.1234 160.309C63.1708 157.8 60.4614 149.109 68.5072 146.601C76.5531 144.092 79.2641 152.783 87.3114 150.274C95.3587 147.765 92.6478 139.075 100.695 136.566C108.742 134.057 111.452 142.748 119.498 140.239C127.544 137.731 124.836 129.039 132.883 126.53C140.93 124.022 143.64 132.712 151.687 130.204C159.735 127.695 157.025 119.004 165.072 116.495" stroke="white" stroke-opacity="0.08" stroke-width="2" stroke-miterlimit="10"/>
<path d="M20.0707 104.517C28.1167 102.008 30.8261 110.699 38.8734 108.19C46.9208 105.681 44.2114 96.9905 52.2572 94.482C60.3031 91.9736 63.0141 100.664 71.0614 98.155C79.1087 95.6462 76.3978 86.9557 84.4451 84.4469C92.4924 81.9381 95.202 90.6287 103.248 88.1203C111.294 85.6118 108.586 76.9206 116.633 74.4118C124.68 71.903 127.39 80.5936 135.437 78.0848C143.485 75.576 140.775 66.8852 148.822 64.3763" stroke="white" stroke-opacity="0.08" stroke-width="2" stroke-miterlimit="10"/>
<path d="M7.88519 65.4279C15.9311 62.9194 18.6405 71.6102 26.6879 69.1012C34.7353 66.5924 32.0257 57.9016 40.0716 55.3932C48.1176 52.8847 50.8286 61.5751 58.8759 59.0661C66.9232 56.5573 64.2123 47.8671 72.2596 45.3581C80.3069 42.8492 83.0163 51.54 91.0623 49.0316C99.1081 46.5232 96.4 37.832 104.448 35.323C112.495 32.8141 115.204 41.5049 123.252 38.9959C131.299 36.4871 128.59 27.7963 136.637 25.2875" stroke="white" stroke-opacity="0.08" stroke-width="2" stroke-miterlimit="10"/>
<path d="M28.1959 130.576C36.2419 128.068 38.9513 136.758 46.9986 134.25C55.0459 131.741 52.3366 123.05 60.3823 120.541C68.4283 118.033 71.1393 126.723 79.1866 124.214C87.2339 121.706 84.523 113.015 92.5703 110.506C100.618 107.998 103.327 116.688 111.373 114.18C119.419 111.671 116.711 102.98 124.758 100.471C132.806 97.9624 135.515 106.653 143.562 104.144C151.61 101.635 148.9 92.9446 156.948 90.4358" stroke="white" stroke-opacity="0.08" stroke-width="2" stroke-miterlimit="10"/>
<path d="M11.9477 78.4574C19.9936 75.949 22.703 84.6398 30.7503 82.1309C38.7977 79.6219 36.0883 70.9313 44.134 68.4229C52.18 65.9144 54.891 74.6047 62.9383 72.0958C70.9856 69.5868 68.2747 60.8966 76.322 58.3878C84.3693 55.8788 87.0789 64.5696 95.1247 62.0611C103.171 59.5527 100.463 50.8615 108.51 48.3527C116.557 45.8437 119.267 54.5345 127.314 52.0257C135.362 49.5166 132.652 40.826 140.699 38.317" stroke="white" stroke-opacity="0.08" stroke-width="2" stroke-miterlimit="10"/>
<path d="M-0.239807 39.3686C7.80608 36.8601 10.5155 45.5507 18.5629 43.0419C26.6103 40.5331 23.9007 31.8423 31.9467 29.3339C39.9926 26.8254 42.7036 35.5156 50.7509 33.0068C58.7982 30.498 56.0873 21.8076 64.1346 19.2988C72.1819 16.7899 74.8913 25.4805 82.9373 22.9721C90.9831 20.4637 88.275 11.7726 96.3226 9.26369C104.37 6.75481 107.079 15.4455 115.127 12.9366C123.174 10.4278 120.465 1.73703 128.512 -0.771851" stroke="white" stroke-opacity="0.08" stroke-width="2" stroke-miterlimit="10"/>
<path d="M22.7817 113.207C30.8277 110.699 33.537 119.39 41.5844 116.881C49.6319 114.372 46.9223 105.681 54.9683 103.173C63.0141 100.664 65.725 109.355 73.7723 106.846C81.8196 104.337 79.1087 95.6466 87.156 93.1376C95.2034 90.6288 97.9129 99.3196 105.959 96.8111C114.005 94.3027 111.297 85.6115 119.344 83.1025C127.391 80.5937 130.101 89.2845 138.148 86.7755C146.196 84.2666 143.486 75.5758 151.533 73.067" stroke="white" stroke-opacity="0.08" stroke-width="2" stroke-miterlimit="10"/>
<path d="M30.9047 139.267C38.9507 136.758 41.6601 145.449 49.7074 142.94C57.7549 140.431 55.0454 131.74 63.0913 129.232C71.1371 126.724 73.848 135.414 81.8954 132.905C89.9427 130.396 87.2318 121.706 95.2791 119.197C103.327 116.688 106.036 125.379 114.082 122.87C122.128 120.362 119.42 111.671 127.467 109.162C135.514 106.653 138.224 115.344 146.271 112.835C154.319 110.326 151.609 101.635 159.657 99.1263" stroke="white" stroke-opacity="0.08" stroke-width="2" stroke-miterlimit="10"/>
<path d="M14.6566 87.1482C22.7025 84.6398 25.4118 93.3306 33.4592 90.8215C41.5067 88.3127 38.7971 79.6219 46.8431 77.1135C54.8889 74.6052 57.5998 83.2955 65.6471 80.7866C73.6945 78.2776 70.9835 69.5874 79.0308 67.0786C87.0784 64.5696 89.7878 73.2604 97.8335 70.7519C105.88 68.2435 103.171 59.5523 111.219 57.0435C119.266 54.5345 121.976 63.2253 130.023 60.7164C138.07 58.2074 135.361 49.5168 143.408 47.0078" stroke="white" stroke-opacity="0.08" stroke-width="2" stroke-miterlimit="10"/>
<path d="M2.46918 48.0592C10.5151 45.5507 13.2245 54.2415 21.2719 51.7325C29.3192 49.2237 26.6098 40.5329 34.6556 38.0245C42.7016 35.516 45.4125 44.2064 53.4598 41.6974C61.5072 39.1886 58.7962 30.4984 66.8436 27.9894C74.8909 25.4805 77.6003 34.1713 85.6463 31.6629C93.6922 29.1545 90.9842 20.4633 99.0315 17.9544C107.079 15.4455 109.788 24.1362 117.836 21.6274C125.883 19.1184 123.174 10.4277 131.221 7.91882" stroke="white" stroke-opacity="0.08" stroke-width="2" stroke-miterlimit="10"/>
<path d="M34.9672 152.297C43.013 149.788 45.7226 158.479 53.7699 155.97C61.8172 153.461 59.1079 144.77 67.1536 142.262C75.1996 139.753 77.9105 148.444 85.9579 145.935C94.0052 143.426 91.2943 134.736 99.3416 132.227C107.389 129.718 110.098 138.409 118.144 135.9C126.19 133.392 123.482 124.701 131.53 122.192C139.577 119.683 142.286 128.374 150.334 125.865C158.381 123.356 155.672 114.665 163.719 112.156" stroke="white" stroke-opacity="0.08" stroke-width="2" stroke-miterlimit="10"/>
<path d="M18.7192 100.178C26.765 97.6692 29.4746 106.36 37.5219 103.851C45.5692 101.342 42.8598 92.6516 50.9056 90.1432C58.9516 87.6347 61.6625 96.3249 69.7098 93.8161C77.7572 91.3073 75.0462 82.6169 83.0936 80.1081C91.1409 77.5992 93.8503 86.2898 101.896 83.7814C109.942 81.273 107.234 72.5818 115.282 70.073C123.329 67.5641 126.038 76.2547 134.086 73.7459C142.133 71.2371 139.424 62.5463 147.471 60.0375" stroke="white" stroke-opacity="0.08" stroke-width="2" stroke-miterlimit="10"/>
<path d="M6.53168 61.0888C14.5776 58.5803 17.287 67.2711 25.3343 64.7621C33.3818 62.2533 30.6722 53.5625 38.7182 51.054C46.764 48.5456 49.4749 57.236 57.5222 54.727C65.5696 52.2182 62.8586 43.528 70.906 41.0189C78.9535 38.5101 81.6629 47.2009 89.7087 44.6925C97.7546 42.184 95.0466 33.4929 103.094 30.9838C111.141 28.475 113.851 37.1658 121.898 34.6568C129.945 32.148 127.236 23.4572 135.283 20.9484" stroke="white" stroke-opacity="0.08" stroke-width="2" stroke-miterlimit="10"/>
<path d="M26.8422 126.237C34.888 123.729 37.5976 132.419 45.6449 129.911C53.6922 127.402 50.9829 118.711 59.0286 116.202C67.0746 113.694 69.7855 122.384 77.8329 119.875C85.8802 117.367 83.1693 108.676 91.2166 106.167C99.2639 103.659 101.973 112.349 110.019 109.841C118.065 107.332 115.357 98.6413 123.405 96.1323C131.452 93.6235 134.161 102.314 142.209 99.8052C150.256 97.2964 147.547 88.6056 155.594 86.0968" stroke="white" stroke-opacity="0.08" stroke-width="2" stroke-miterlimit="10"/>
<path d="M10.5943 74.1184C18.6402 71.61 21.3497 80.3008 29.397 77.792C37.4443 75.2829 34.7349 66.5923 42.7807 64.0839C50.8267 61.5755 53.5376 70.2657 61.585 67.7569C69.6323 65.2478 66.9214 56.5576 74.9687 54.0488C83.016 51.5398 85.7254 60.2306 93.7714 57.7221C101.817 55.2137 99.1093 46.5225 107.157 44.0137C115.204 41.5047 117.913 50.1955 125.961 47.6867C134.008 45.1776 131.299 36.487 139.346 33.978" stroke="white" stroke-opacity="0.08" stroke-width="2" stroke-miterlimit="10"/>
<path d="M-1.59137 35.0295C6.45452 32.521 9.16399 41.2116 17.2113 38.7028C25.2588 36.194 22.5492 27.5032 30.5952 24.9948C38.6409 22.4863 41.3519 31.1765 49.3992 28.6677C57.4465 26.1589 54.7356 17.4686 62.7829 14.9597C70.8304 12.4508 73.5398 21.1414 81.5856 18.6331C89.6316 16.1247 86.9235 7.43346 94.9709 4.92458C103.018 2.4157 105.728 11.1064 113.775 8.59754C121.822 6.08866 119.113 -2.60208 127.16 -5.11096" stroke="white" stroke-opacity="0.08" stroke-width="2" stroke-miterlimit="10"/>
<path d="M39.0298 165.326C47.0758 162.818 49.7852 171.508 57.8325 169C65.8801 166.491 63.1705 157.8 71.2165 155.291C79.2622 152.783 81.9732 161.473 90.0205 158.964C98.0678 156.455 95.3569 147.765 103.404 145.256C111.452 142.747 114.161 151.438 122.207 148.93C130.253 146.421 127.545 137.73 135.592 135.221C143.639 132.712 146.349 141.403 154.396 138.894C162.444 136.385 159.734 127.695 167.782 125.186" stroke="white" stroke-opacity="0.08" stroke-width="2" stroke-miterlimit="10"/>
<path d="M22.7817 113.207C30.8277 110.699 33.537 119.39 41.5844 116.881C49.6319 114.372 46.9223 105.681 54.9683 103.173C63.0141 100.664 65.725 109.355 73.7723 106.846C81.8196 104.337 79.1087 95.6466 87.156 93.1376C95.2034 90.6288 97.9129 99.3196 105.959 96.8111C114.005 94.3027 111.297 85.6115 119.344 83.1025C127.391 80.5937 130.101 89.2845 138.148 86.7755C146.196 84.2666 143.486 75.5758 151.533 73.067" stroke="white" stroke-opacity="0.08" stroke-width="2" stroke-miterlimit="10"/>
<path d="M30.9047 139.267C38.9507 136.758 41.6601 145.449 49.7074 142.94C57.7549 140.431 55.0454 131.74 63.0913 129.232C71.1371 126.724 73.848 135.414 81.8954 132.905C89.9427 130.396 87.2318 121.706 95.2791 119.197C103.327 116.688 106.036 125.379 114.082 122.87C122.128 120.362 119.42 111.671 127.467 109.162C135.514 106.653 138.224 115.344 146.271 112.835C154.319 110.326 151.609 101.635 159.657 99.1263" stroke="white" stroke-opacity="0.08" stroke-width="2" stroke-miterlimit="10"/>
<path d="M14.6566 87.1482C22.7025 84.6398 25.4118 93.3306 33.4592 90.8215C41.5067 88.3127 38.7971 79.6219 46.8431 77.1135C54.8889 74.6052 57.5998 83.2955 65.6471 80.7866C73.6945 78.2776 70.9835 69.5874 79.0308 67.0786C87.0784 64.5696 89.7878 73.2604 97.8335 70.7519C105.88 68.2435 103.171 59.5523 111.219 57.0435C119.266 54.5345 121.976 63.2253 130.023 60.7164C138.07 58.2074 135.361 49.5168 143.408 47.0078" stroke="white" stroke-opacity="0.08" stroke-width="2" stroke-miterlimit="10"/>
<path d="M2.46918 48.0592C10.5151 45.5507 13.2245 54.2415 21.2719 51.7325C29.3192 49.2237 26.6098 40.5329 34.6556 38.0245C42.7016 35.516 45.4125 44.2064 53.4598 41.6974C61.5072 39.1886 58.7962 30.4984 66.8436 27.9894C74.8909 25.4805 77.6003 34.1713 85.6463 31.6629C93.6922 29.1545 90.9842 20.4633 99.0315 17.9544C107.079 15.4455 109.788 24.1362 117.836 21.6274C125.883 19.1184 123.174 10.4277 131.221 7.91882" stroke="white" stroke-opacity="0.08" stroke-width="2" stroke-miterlimit="10"/>
<path d="M34.9672 152.297C43.013 149.788 45.7226 158.479 53.7699 155.97C61.8172 153.461 59.1079 144.77 67.1536 142.262C75.1996 139.753 77.9105 148.444 85.9579 145.935C94.0052 143.426 91.2943 134.736 99.3416 132.227C107.389 129.718 110.098 138.409 118.144 135.9C126.19 133.392 123.482 124.701 131.53 122.192C139.577 119.683 142.286 128.374 150.334 125.865C158.381 123.356 155.672 114.665 163.719 112.156" stroke="white" stroke-opacity="0.08" stroke-width="2" stroke-miterlimit="10"/>
<path d="M18.7192 100.178C26.765 97.6692 29.4746 106.36 37.5219 103.851C45.5692 101.342 42.8598 92.6516 50.9056 90.1432C58.9516 87.6347 61.6625 96.3249 69.7098 93.8161C77.7572 91.3073 75.0462 82.6169 83.0936 80.1081C91.1409 77.5992 93.8503 86.2898 101.896 83.7814C109.942 81.273 107.234 72.5818 115.282 70.073C123.329 67.5641 126.038 76.2547 134.086 73.7459C142.133 71.2371 139.424 62.5463 147.471 60.0375" stroke="white" stroke-opacity="0.08" stroke-width="2" stroke-miterlimit="10"/>
<path d="M6.53168 61.0888C14.5776 58.5803 17.287 67.2711 25.3343 64.7621C33.3818 62.2533 30.6722 53.5625 38.7182 51.054C46.764 48.5456 49.4749 57.236 57.5222 54.727C65.5696 52.2182 62.8586 43.528 70.906 41.0189C78.9535 38.5101 81.6629 47.2009 89.7087 44.6925C97.7546 42.184 95.0466 33.4929 103.094 30.9838C111.141 28.475 113.851 37.1658 121.898 34.6568C129.945 32.148 127.236 23.4572 135.283 20.9484" stroke="white" stroke-opacity="0.08" stroke-width="2" stroke-miterlimit="10"/>
<path d="M26.8422 126.237C34.888 123.729 37.5976 132.419 45.6449 129.911C53.6922 127.402 50.9829 118.711 59.0286 116.202C67.0746 113.694 69.7855 122.384 77.8329 119.875C85.8802 117.367 83.1693 108.676 91.2166 106.167C99.2639 103.659 101.973 112.349 110.019 109.841C118.065 107.332 115.357 98.6413 123.405 96.1323C131.452 93.6235 134.161 102.314 142.209 99.8052C150.256 97.2964 147.547 88.6056 155.594 86.0968" stroke="white" stroke-opacity="0.08" stroke-width="2" stroke-miterlimit="10"/>
<path d="M10.5943 74.1184C18.6402 71.61 21.3497 80.3008 29.397 77.792C37.4443 75.2829 34.7349 66.5923 42.7807 64.0839C50.8267 61.5755 53.5376 70.2657 61.585 67.7569C69.6323 65.2478 66.9214 56.5576 74.9687 54.0488C83.016 51.5398 85.7254 60.2306 93.7714 57.7221C101.817 55.2137 99.1093 46.5225 107.157 44.0137C115.204 41.5047 117.913 50.1955 125.961 47.6867C134.008 45.1776 131.299 36.487 139.346 33.978" stroke="white" stroke-opacity="0.08" stroke-width="2" stroke-miterlimit="10"/>
<path d="M-1.59137 35.0295C6.45452 32.521 9.16399 41.2116 17.2113 38.7028C25.2588 36.194 22.5492 27.5032 30.5952 24.9948C38.6409 22.4863 41.3519 31.1765 49.3992 28.6677C57.4465 26.1589 54.7356 17.4686 62.7829 14.9597C70.8304 12.4508 73.5398 21.1414 81.5856 18.6331C89.6316 16.1247 86.9235 7.43346 94.9709 4.92458C103.018 2.4157 105.728 11.1064 113.775 8.59754C121.822 6.08866 119.113 -2.60208 127.16 -5.11096" stroke="white" stroke-opacity="0.08" stroke-width="2" stroke-miterlimit="10"/>
<path d="M37.6762 160.987C45.7222 158.479 48.4316 167.17 56.4789 164.661C64.5262 162.152 61.8168 153.461 69.8626 150.953C77.9086 148.444 80.6195 157.135 88.6669 154.626C96.7142 152.117 94.0033 143.426 102.051 140.918C110.098 138.409 112.807 147.099 120.853 144.591C128.899 142.083 126.191 133.391 134.239 130.883C142.286 128.374 144.995 137.064 153.043 134.555C161.09 132.047 158.381 123.356 166.428 120.847" stroke="white" stroke-opacity="0.08" stroke-width="2" stroke-miterlimit="10"/>
<path d="M21.4282 108.868C29.4742 106.36 32.1836 115.051 40.2309 112.542C48.2782 110.033 45.5689 101.342 53.6146 98.8339C61.6606 96.3255 64.3715 105.016 72.4189 102.507C80.4662 99.9979 77.7553 91.3077 85.8026 88.7988C93.8499 86.2898 96.5595 94.9806 104.605 92.4722C112.651 89.9638 109.943 81.2726 117.991 78.7638C126.038 76.2549 128.747 84.9455 136.795 82.4367C144.842 79.9279 142.133 71.2371 150.18 68.7283" stroke="white" stroke-opacity="0.08" stroke-width="2" stroke-miterlimit="10"/>
<path d="M29.5532 134.928C37.5991 132.419 40.3085 141.11 48.3559 138.601C56.4032 136.092 53.6938 127.402 61.7396 124.893C69.7856 122.385 72.4965 131.075 80.5438 128.566C88.5911 126.057 85.8802 117.367 93.9275 114.858C101.975 112.349 104.684 121.04 112.73 118.532C120.776 116.023 118.068 107.332 126.115 104.823C134.163 102.314 136.872 111.005 144.92 108.496C152.967 105.987 150.257 97.2965 158.305 94.7875" stroke="white" stroke-opacity="0.08" stroke-width="2" stroke-miterlimit="10"/>
<path d="M13.3032 82.8092C21.3491 80.3008 24.0585 88.9916 32.1058 86.4826C40.1532 83.9737 37.4438 75.2829 45.4896 72.7745C53.5355 70.2663 56.2465 78.9565 64.2938 76.4477C72.3411 73.9386 69.6302 65.2484 77.6775 62.7396C85.7248 60.2306 88.4344 68.9214 96.4802 66.4129C104.526 63.9045 101.818 55.2133 109.865 52.7045C117.913 50.1955 120.622 58.8863 128.67 56.3775C136.717 53.8684 134.007 45.1778 142.055 42.6688" stroke="white" stroke-opacity="0.08" stroke-width="2" stroke-miterlimit="10"/>
<path d="M1.11761 43.7201C9.1635 41.2116 11.873 49.9024 19.9204 47.3934C27.9677 44.8846 25.2581 36.1938 33.3041 33.6854C41.3499 31.1769 44.0608 39.8673 52.1082 37.3583C60.1555 34.8495 57.4447 26.1593 65.4921 23.6503C73.5394 21.1414 76.2488 29.8322 84.2948 27.3238C92.3405 24.8154 89.6325 16.1241 97.6798 13.6153C105.727 11.1064 108.437 19.7971 116.484 17.2882C124.531 14.7793 121.822 6.08859 129.869 3.57971" stroke="white" stroke-opacity="0.08" stroke-width="2" stroke-miterlimit="10"/>
<path d="M33.6157 147.958C41.6614 145.449 44.371 154.14 52.4184 151.631C60.4657 149.122 57.7561 140.431 65.8021 137.923C73.8479 135.415 76.5588 144.105 84.6061 141.596C92.6534 139.087 89.9427 130.397 97.99 127.888C106.037 125.379 108.747 134.07 116.793 131.561C124.839 129.053 122.13 120.362 130.178 117.853C138.225 115.344 140.935 124.035 148.982 121.526C157.029 119.017 154.32 110.326 162.367 107.817" stroke="white" stroke-opacity="0.08" stroke-width="2" stroke-miterlimit="10"/>
<path d="M17.3657 95.8388C25.4115 93.3304 28.1211 102.021 36.1684 99.5123C44.2158 97.0035 41.5062 88.3127 49.5522 85.8043C57.5979 83.2958 60.3089 91.9861 68.3562 89.4772C76.4037 86.9684 73.6928 78.278 81.7401 75.7692C89.7874 73.2604 92.4968 81.951 100.543 79.4425C108.589 76.9341 105.881 68.2429 113.928 65.7341C121.975 63.2253 124.685 71.9159 132.732 69.407C140.779 66.8982 138.07 58.2074 146.117 55.6986" stroke="white" stroke-opacity="0.08" stroke-width="2" stroke-miterlimit="10"/>
<path d="M5.18011 56.7499C13.226 54.2414 15.9355 62.9322 23.9828 60.4232C32.0301 57.9144 29.3207 49.2236 37.3665 46.7152C45.4125 44.2067 48.1234 52.8971 56.1707 50.3881C64.2181 47.8793 61.5071 39.1891 69.5545 36.6801C77.6018 34.1712 80.3114 42.862 88.3572 40.3536C96.4031 37.8452 93.6951 29.154 101.742 26.645C109.79 24.1361 112.499 32.8269 120.546 30.3179C128.594 27.8091 125.884 19.1184 133.932 16.6095" stroke="white" stroke-opacity="0.08" stroke-width="2" stroke-miterlimit="10"/>
<path d="M25.4906 121.898C33.5364 119.39 36.246 128.08 44.2933 125.572C52.3406 123.063 49.631 114.372 57.677 111.863C65.7228 109.355 68.4337 118.045 76.4811 115.536C84.5284 113.028 81.8176 104.337 89.865 101.828C97.9123 99.3196 100.622 108.01 108.668 105.502C116.713 102.993 114.005 94.3023 122.053 91.7933C130.1 89.2845 132.81 97.9753 140.857 95.4663C148.904 92.9574 146.195 84.2666 154.242 81.7578" stroke="white" stroke-opacity="0.08" stroke-width="2" stroke-miterlimit="10"/>
<path d="M9.24261 69.7794C17.2885 67.271 19.9981 75.9618 28.0454 73.453C36.0927 70.944 33.3831 62.2533 41.4291 59.7449C49.4749 57.2365 52.1858 65.9267 60.2332 63.4179C68.2805 60.9089 65.5697 52.2186 73.6171 49.7098C81.6644 47.2008 84.3738 55.8916 92.4198 53.3832C100.466 50.8747 97.7575 42.1835 105.805 39.6747C113.852 37.1657 116.562 45.8565 124.609 43.3477C132.656 40.8387 129.947 32.1481 137.994 29.639" stroke="white" stroke-opacity="0.08" stroke-width="2" stroke-miterlimit="10"/>
<path d="M-2.94489 30.6906C5.101 28.1822 7.81048 36.8728 15.8578 34.3639C23.9051 31.8551 21.1957 23.1643 29.2415 20.6559C37.2875 18.1474 39.9984 26.8377 48.0457 24.3288C56.0931 21.82 53.3821 13.1297 61.4295 10.6208C69.4768 8.11191 72.1864 16.8026 80.2322 14.2942C88.2781 11.7858 85.5701 3.09459 93.6174 0.58571C101.665 -1.92317 104.374 6.76757 112.421 4.25867C120.469 1.74979 117.759 -6.94095 125.807 -9.44983" stroke="white" stroke-opacity="0.08" stroke-width="2" stroke-miterlimit="10"/>
<path d="M40.3832 169.665C48.429 167.157 51.1386 175.847 59.1859 173.339C67.2333 170.829 64.5237 162.139 72.5697 159.63C80.6156 157.122 83.3264 165.812 91.3739 163.303C99.4212 160.794 96.7103 152.104 104.758 149.595C112.805 147.086 115.514 155.777 123.56 153.269C131.606 150.76 128.898 142.069 136.946 139.56C144.993 137.051 147.702 145.742 155.75 143.233C163.797 140.724 161.088 132.034 169.135 129.525" stroke="white" stroke-opacity="0.08" stroke-width="2" stroke-miterlimit="10"/>
<path d="M39.0298 165.326C47.0758 162.818 49.7852 171.508 57.8325 169C65.8801 166.491 63.1705 157.8 71.2165 155.291C79.2622 152.783 81.9732 161.473 90.0205 158.964C98.0678 156.455 95.3569 147.765 103.404 145.256C111.452 142.747 114.161 151.438 122.207 148.93C130.253 146.421 127.545 137.73 135.592 135.221C143.639 132.712 146.349 141.403 154.396 138.894C162.444 136.385 159.734 127.695 167.782 125.186" stroke="white" stroke-opacity="0.08" stroke-width="2" stroke-miterlimit="10"/>
</g>
</svg>
