<svg width="23" height="23" viewBox="0 0 23 23" fill="none" xmlns="http://www.w3.org/2000/svg">
<g clip-path="url(#clip0_2_990)">
<path d="M11.5 0C9.22552 0 7.00211 0.674463 5.11095 1.9381C3.21978 3.20174 1.7458 4.99779 0.875391 7.09914C0.00498279 9.20049 -0.222756 11.5128 0.220974 13.7435C0.664704 15.9743 1.75997 18.0234 3.36828 19.6317C4.97658 21.24 7.02569 22.3353 9.25647 22.779C11.4872 23.2228 13.7995 22.995 15.9009 22.1246C18.0022 21.2542 19.7983 19.7802 21.0619 17.8891C22.3255 15.9979 23 13.7745 23 11.5C22.9967 8.45102 21.784 5.52787 19.6281 3.37191C17.4721 1.21596 14.549 0.0032977 11.5 0ZM19.7867 6.70833H16.6999C16.0089 5.10694 15.0991 3.60917 13.9965 2.25783C16.4368 2.92189 18.5172 4.52091 19.7867 6.70833ZM15.8125 11.5C15.8046 12.4757 15.6509 13.4448 15.3563 14.375H7.64367C7.34913 13.4448 7.19537 12.4757 7.1875 11.5C7.19537 10.5243 7.34913 9.55523 7.64367 8.625H15.3563C15.6509 9.55523 15.8046 10.5243 15.8125 11.5ZM8.41226 16.2917H14.5878C13.7744 17.8976 12.7345 19.3783 11.5 20.6885C10.2651 19.3787 9.22515 17.8979 8.41226 16.2917ZM8.41226 6.70833C9.22565 5.10243 10.2655 3.62169 11.5 2.3115C12.7349 3.62132 13.7749 5.10213 14.5878 6.70833H8.41226ZM9.00834 2.25783C7.90401 3.60888 6.99256 5.10667 6.30009 6.70833H3.2133C4.48391 4.51991 6.56618 2.92076 9.00834 2.25783ZM2.35846 8.625H5.65417C5.40573 9.56335 5.27693 10.5293 5.27084 11.5C5.27693 12.4707 5.40573 13.4367 5.65417 14.375H2.35846C1.76941 12.5036 1.76941 10.4964 2.35846 8.625ZM3.2133 16.2917H6.30009C6.99256 17.8933 7.90401 19.3911 9.00834 20.7422C6.56618 20.0792 4.48391 18.4801 3.2133 16.2917ZM13.9965 20.7422C15.0991 19.3908 16.0089 17.8931 16.6999 16.2917H19.7867C18.5172 18.4791 16.4368 20.0781 13.9965 20.7422ZM20.6415 14.375H17.3458C17.5943 13.4367 17.7231 12.4707 17.7292 11.5C17.7231 10.5293 17.5943 9.56335 17.3458 8.625H20.6396C21.2287 10.4964 21.2287 12.5036 20.6396 14.375H20.6415Z" fill="#0293DE"/>
</g>
<defs>
<clipPath id="clip0_2_990">
<rect width="23" height="23" fill="white"/>
</clipPath>
</defs>
</svg>
