<svg width="238" height="138" viewBox="0 0 238 138" fill="none" xmlns="http://www.w3.org/2000/svg">
<path d="M-189.483 76.4823C-173.576 92.3901 -190.758 109.573 -174.848 125.483C-158.937 141.394 -141.754 124.211 -125.847 140.119C-109.939 156.027 -127.119 173.212 -111.208 189.123C-95.2974 205.034 -78.1176 187.848 -62.207 203.759C-46.2964 219.669 -63.4791 236.852 -47.5713 252.76C-31.6636 268.667 -14.478 251.488 1.43263 267.398C17.3432 283.309 0.160557 300.492 16.0712 316.402C31.9818 332.313 49.1645 315.13 65.0751 331.041" stroke="white" stroke-opacity="0.08" stroke-width="2" stroke-miterlimit="10"/>
<path d="M-241.005 128.005C-225.097 143.913 -242.28 161.095 -226.369 177.006C-210.459 192.916 -193.276 175.734 -177.368 191.642C-161.46 207.549 -178.64 224.735 -162.73 240.645C-146.819 256.556 -129.639 239.371 -113.728 255.281C-97.8178 271.192 -115.001 288.374 -99.0928 304.282C-83.185 320.19 -65.9995 303.01 -50.0889 318.921C-34.1782 334.831 -51.3609 352.014 -35.4503 367.925C-19.5397 383.835 -2.35699 366.653 13.5536 382.563" stroke="white" stroke-opacity="0.08" stroke-width="2" stroke-miterlimit="10"/>
<path d="M-137.96 24.9594C-122.052 40.8671 -139.235 58.0498 -123.324 73.9605C-107.414 89.8711 -90.2309 72.6884 -74.3231 88.5961C-58.4154 104.504 -75.5952 121.689 -59.6846 137.6C-43.774 153.511 -26.5942 136.325 -10.6835 152.236C5.22708 168.146 -11.9556 185.329 3.95213 201.237C19.8599 217.145 37.0454 199.965 52.9561 215.875C68.8667 231.786 51.684 248.969 67.5946 264.879C83.5052 280.79 100.688 263.607 116.599 279.518" stroke="white" stroke-opacity="0.08" stroke-width="2" stroke-miterlimit="10"/>
<path d="M-60.6767 -52.3243C-44.7689 -36.4165 -61.9516 -19.2339 -46.041 -3.32323C-30.1304 12.5874 -12.9477 -4.59531 2.96005 11.3124C18.8678 27.2202 1.68798 44.4058 17.5986 60.3164C33.5092 76.227 50.689 59.0414 66.5997 74.952C82.5103 90.8627 65.3276 108.045 81.2353 123.953C97.1431 139.861 114.329 122.681 130.239 138.592C146.15 154.502 128.967 171.685 144.878 187.596C160.788 203.506 177.971 186.324 193.882 202.234" stroke="white" stroke-opacity="0.08" stroke-width="2" stroke-miterlimit="10"/>
<path d="M-163.722 50.7211C-147.814 66.6289 -164.997 83.8116 -149.086 99.7222C-133.175 115.633 -115.993 98.4501 -100.085 114.358C-84.1771 130.266 -101.357 147.451 -85.4463 163.362C-69.5357 179.272 -52.3559 162.087 -36.4453 177.997C-20.5346 193.908 -37.7173 211.091 -21.8096 226.999C-5.90184 242.906 11.2837 225.726 27.1943 241.637C43.105 257.548 25.9223 274.73 41.8329 290.641C57.7435 306.552 74.9262 289.369 90.8368 305.28" stroke="white" stroke-opacity="0.08" stroke-width="2" stroke-miterlimit="10"/>
<path d="M-86.4364 -26.5631C-70.5287 -10.6553 -87.7114 6.52738 -71.8008 22.438C-55.8902 38.3486 -38.7075 21.1659 -22.7997 37.0737C-6.89196 52.9814 -24.0718 70.167 -8.16116 86.0776C7.74945 101.988 24.9293 84.8027 40.8399 100.713C56.7505 116.624 39.5678 133.807 55.4756 149.714C71.3833 165.622 88.5689 148.442 104.48 164.353C120.39 180.264 103.207 197.446 119.118 213.357C135.029 229.267 152.211 212.085 168.122 227.995" stroke="white" stroke-opacity="0.08" stroke-width="2" stroke-miterlimit="10"/>
<path d="M-215.243 102.244C-199.335 118.151 -216.518 135.334 -200.607 151.245C-184.697 167.155 -167.514 149.973 -151.606 165.88C-135.699 181.788 -152.878 198.974 -136.968 214.884C-121.057 230.795 -103.877 213.609 -87.9667 229.52C-72.0561 245.431 -89.2388 262.613 -73.3311 278.521C-57.4233 294.429 -40.2378 277.249 -24.3271 293.16C-8.41652 309.07 -25.5992 326.253 -9.68859 342.163C6.22203 358.074 23.4047 340.891 39.3153 356.802" stroke="white" stroke-opacity="0.08" stroke-width="2" stroke-miterlimit="10"/>
<path d="M-112.198 -0.801835C-96.2904 15.1059 -113.473 32.2886 -97.5625 48.1992C-81.6519 64.1098 -64.4692 46.9272 -48.5614 62.8349C-32.6537 78.7426 -49.8335 95.9282 -33.9229 111.839C-18.0123 127.749 -0.83244 110.564 15.0782 126.475C30.9888 142.385 13.8061 159.568 29.7139 175.476C45.6216 191.383 62.8072 174.203 78.7178 190.114C94.6284 206.025 77.4457 223.207 93.3563 239.118C109.267 255.029 126.45 237.846 142.36 253.757" stroke="white" stroke-opacity="0.08" stroke-width="2" stroke-miterlimit="10"/>
<path d="M-34.915 -78.0855C-19.0072 -62.1778 -36.1899 -44.9951 -20.2793 -29.0845C-4.36867 -13.1738 12.814 -30.3565 28.7218 -14.4488C44.6295 1.45896 27.4497 18.6445 43.3603 34.5551C59.2709 50.4658 76.4508 33.2802 92.3614 49.1908C108.272 65.1014 91.0893 82.2841 106.997 98.1919C122.905 114.1 140.09 96.9198 156.001 112.83C171.912 128.741 154.729 145.924 170.64 161.834C186.55 177.745 203.733 160.562 219.643 176.473" stroke="white" stroke-opacity="0.08" stroke-width="2" stroke-miterlimit="10"/>
<path d="M-180.905 67.9037C-164.997 83.8115 -182.18 100.994 -166.27 116.905C-150.359 132.815 -133.176 115.633 -117.268 131.54C-101.361 147.448 -118.541 164.634 -102.63 180.544C-86.7193 196.455 -69.5395 179.269 -53.6289 195.18C-37.7182 211.091 -54.9009 228.273 -38.9932 244.181C-23.0854 260.089 -5.89986 242.909 10.0108 258.82C25.9214 274.73 8.73868 291.913 24.6493 307.824C40.5599 323.734 57.7426 306.552 73.6532 322.462" stroke="white" stroke-opacity="0.08" stroke-width="2" stroke-miterlimit="10"/>
<path d="M-232.427 119.426C-216.519 135.334 -233.702 152.517 -217.791 168.427C-201.88 184.338 -184.698 167.155 -168.79 183.063C-152.882 198.971 -170.062 216.156 -154.151 232.067C-138.241 247.977 -121.061 230.792 -105.15 246.703C-89.2397 262.613 -106.422 279.796 -90.5147 295.704C-74.6069 311.611 -57.4213 294.432 -41.5107 310.342C-25.6001 326.253 -42.7828 343.435 -26.8722 359.346C-10.9616 375.257 6.22113 358.074 22.1318 373.985" stroke="white" stroke-opacity="0.08" stroke-width="2" stroke-miterlimit="10"/>
<path d="M-129.382 16.3808C-113.474 32.2885 -130.657 49.4712 -114.746 65.3818C-98.8355 81.2925 -81.6528 64.1098 -65.745 80.0175C-49.8373 95.9253 -67.0171 113.111 -51.1065 129.021C-35.1959 144.932 -18.016 127.747 -2.10542 143.657C13.8052 159.568 -3.37749 176.75 12.5303 192.658C28.438 208.566 45.6236 191.386 61.5342 207.297C77.4448 223.207 60.2621 240.39 76.1727 256.301C92.0834 272.211 109.266 255.029 125.177 270.939" stroke="white" stroke-opacity="0.08" stroke-width="2" stroke-miterlimit="10"/>
<path d="M-52.0986 -60.9029C-36.1908 -44.9952 -53.3735 -27.8125 -37.4629 -11.9018C-21.5523 4.00877 -4.36957 -13.1739 11.5382 2.73383C27.4459 18.6416 10.2661 35.8271 26.1767 51.7378C42.0873 67.6484 59.2672 50.4628 75.1778 66.3734C91.0884 82.2841 73.9057 99.4667 89.8135 115.374C105.721 131.282 122.907 114.102 138.817 130.013C154.728 145.924 137.545 163.106 153.456 179.017C169.367 194.928 186.549 177.745 202.46 193.656" stroke="white" stroke-opacity="0.08" stroke-width="2" stroke-miterlimit="10"/>
<path d="M-155.143 42.1425C-139.236 58.0503 -156.418 75.2329 -140.508 91.1436C-124.597 107.054 -107.414 89.8715 -91.5067 105.779C-75.599 121.687 -92.7788 138.873 -76.8682 154.783C-60.9576 170.694 -43.7778 153.508 -27.8671 169.419C-11.9565 185.329 -29.1392 202.512 -13.2315 218.42C2.67629 234.328 19.8619 217.148 35.7725 233.058C51.6831 248.969 34.5004 266.152 50.411 282.062C66.3216 297.973 83.5043 280.79 99.415 296.701" stroke="white" stroke-opacity="0.08" stroke-width="2" stroke-miterlimit="10"/>
<path d="M-77.8583 -35.1417C-61.9506 -19.2339 -79.1333 -2.05124 -63.2226 13.8594C-47.312 29.77 -30.1293 12.5873 -14.2216 28.4951C1.68616 44.4028 -15.4937 61.5884 0.41696 77.499C16.3276 93.4096 33.5074 76.224 49.418 92.1347C65.3286 108.045 48.1459 125.228 64.0537 141.136C79.9614 157.043 97.147 139.864 113.058 155.774C128.968 171.685 111.786 188.868 127.696 204.778C143.607 220.689 160.789 203.506 176.7 219.417" stroke="white" stroke-opacity="0.08" stroke-width="2" stroke-miterlimit="10"/>
<path d="M-206.665 93.665C-190.757 109.573 -207.94 126.755 -192.029 142.666C-176.119 158.577 -158.936 141.394 -143.028 157.302C-127.12 173.209 -144.3 190.395 -128.39 206.306C-112.479 222.216 -95.2992 205.031 -79.3886 220.941C-63.478 236.852 -80.6607 254.035 -64.7529 269.942C-48.8452 285.85 -31.6596 268.67 -15.749 284.581C0.161609 300.492 -17.0211 317.674 -1.11046 333.585C14.8002 349.495 31.9829 332.313 47.8935 348.223" stroke="white" stroke-opacity="0.08" stroke-width="2" stroke-miterlimit="10"/>
<path d="M-103.62 -9.38045C-87.7123 6.5273 -104.895 23.71 -88.9844 39.6206C-73.0737 55.5312 -55.8911 38.3485 -39.9833 54.2563C-24.0756 70.164 -41.2554 87.3496 -25.3448 103.26C-9.43414 119.171 7.74568 101.985 23.6563 117.896C39.5669 133.807 22.3842 150.989 38.292 166.897C54.1997 182.805 71.3853 165.625 87.2959 181.536C103.207 197.446 86.0238 214.629 101.934 230.539C117.845 246.45 135.028 229.267 150.938 245.178" stroke="white" stroke-opacity="0.08" stroke-width="2" stroke-miterlimit="10"/>
<path d="M-26.3368 -86.6641C-10.4291 -70.7564 -27.6118 -53.5737 -11.7012 -37.6631C4.20946 -21.7525 21.3921 -38.9352 37.2999 -23.0274C53.2076 -7.11965 36.0278 10.0659 51.9384 25.9765C67.8491 41.8871 85.0289 24.7016 100.94 40.6122C116.85 56.5228 99.6674 73.7055 115.575 89.6133C131.483 105.521 148.668 88.3412 164.579 104.252C180.49 120.162 163.307 137.345 179.218 153.256C195.128 169.166 212.311 151.984 228.222 167.894" stroke="white" stroke-opacity="0.08" stroke-width="2" stroke-miterlimit="10"/>
<path d="M-180.905 67.9037C-164.997 83.8115 -182.18 100.994 -166.27 116.905C-150.359 132.815 -133.176 115.633 -117.268 131.54C-101.361 147.448 -118.541 164.634 -102.63 180.544C-86.7193 196.455 -69.5395 179.269 -53.6289 195.18C-37.7182 211.091 -54.9009 228.273 -38.9932 244.181C-23.0854 260.089 -5.89986 242.909 10.0108 258.82C25.9214 274.73 8.73868 291.913 24.6493 307.824C40.5599 323.734 57.7426 306.552 73.6532 322.462" stroke="white" stroke-opacity="0.08" stroke-width="2" stroke-miterlimit="10"/>
<path d="M-232.427 119.426C-216.519 135.334 -233.702 152.517 -217.791 168.427C-201.88 184.338 -184.698 167.155 -168.79 183.063C-152.882 198.971 -170.062 216.156 -154.151 232.067C-138.241 247.977 -121.061 230.792 -105.15 246.703C-89.2397 262.613 -106.422 279.796 -90.5147 295.704C-74.6069 311.611 -57.4213 294.432 -41.5107 310.342C-25.6001 326.253 -42.7828 343.435 -26.8722 359.346C-10.9616 375.257 6.22113 358.074 22.1318 373.985" stroke="white" stroke-opacity="0.08" stroke-width="2" stroke-miterlimit="10"/>
<path d="M-129.382 16.3808C-113.474 32.2885 -130.657 49.4712 -114.746 65.3818C-98.8355 81.2925 -81.6528 64.1098 -65.745 80.0175C-49.8373 95.9253 -67.0171 113.111 -51.1065 129.021C-35.1959 144.932 -18.016 127.747 -2.10542 143.657C13.8052 159.568 -3.37749 176.75 12.5303 192.658C28.438 208.566 45.6236 191.386 61.5342 207.297C77.4448 223.207 60.2621 240.39 76.1727 256.301C92.0834 272.211 109.266 255.029 125.177 270.939" stroke="white" stroke-opacity="0.08" stroke-width="2" stroke-miterlimit="10"/>
<path d="M-52.0986 -60.9029C-36.1908 -44.9952 -53.3735 -27.8125 -37.4629 -11.9018C-21.5523 4.00877 -4.36957 -13.1739 11.5382 2.73383C27.4459 18.6416 10.2661 35.8271 26.1767 51.7378C42.0873 67.6484 59.2672 50.4628 75.1778 66.3734C91.0884 82.2841 73.9057 99.4667 89.8135 115.374C105.721 131.282 122.907 114.102 138.817 130.013C154.728 145.924 137.545 163.106 153.456 179.017C169.367 194.928 186.549 177.745 202.46 193.656" stroke="white" stroke-opacity="0.08" stroke-width="2" stroke-miterlimit="10"/>
<path d="M-155.143 42.1425C-139.236 58.0503 -156.418 75.2329 -140.508 91.1436C-124.597 107.054 -107.414 89.8715 -91.5067 105.779C-75.599 121.687 -92.7788 138.873 -76.8682 154.783C-60.9576 170.694 -43.7778 153.508 -27.8671 169.419C-11.9565 185.329 -29.1392 202.512 -13.2315 218.42C2.67629 234.328 19.8619 217.148 35.7725 233.058C51.6831 248.969 34.5004 266.152 50.411 282.062C66.3216 297.973 83.5043 280.79 99.415 296.701" stroke="white" stroke-opacity="0.08" stroke-width="2" stroke-miterlimit="10"/>
<path d="M-77.8583 -35.1417C-61.9506 -19.2339 -79.1333 -2.05124 -63.2226 13.8594C-47.312 29.77 -30.1293 12.5873 -14.2216 28.4951C1.68616 44.4028 -15.4937 61.5884 0.41696 77.499C16.3276 93.4096 33.5074 76.224 49.418 92.1347C65.3286 108.045 48.1459 125.228 64.0537 141.136C79.9614 157.043 97.147 139.864 113.058 155.774C128.968 171.685 111.786 188.868 127.696 204.778C143.607 220.689 160.789 203.506 176.7 219.417" stroke="white" stroke-opacity="0.08" stroke-width="2" stroke-miterlimit="10"/>
<path d="M-206.665 93.665C-190.757 109.573 -207.94 126.755 -192.029 142.666C-176.119 158.577 -158.936 141.394 -143.028 157.302C-127.12 173.209 -144.3 190.395 -128.39 206.306C-112.479 222.216 -95.2992 205.031 -79.3886 220.941C-63.478 236.852 -80.6607 254.035 -64.7529 269.942C-48.8452 285.85 -31.6596 268.67 -15.749 284.581C0.161609 300.492 -17.0211 317.674 -1.11046 333.585C14.8002 349.495 31.9829 332.313 47.8935 348.223" stroke="white" stroke-opacity="0.08" stroke-width="2" stroke-miterlimit="10"/>
<path d="M-103.62 -9.38045C-87.7123 6.5273 -104.895 23.71 -88.9844 39.6206C-73.0737 55.5312 -55.8911 38.3485 -39.9833 54.2563C-24.0756 70.164 -41.2554 87.3496 -25.3448 103.26C-9.43414 119.171 7.74568 101.985 23.6563 117.896C39.5669 133.807 22.3842 150.989 38.292 166.897C54.1997 182.805 71.3853 165.625 87.2959 181.536C103.207 197.446 86.0238 214.629 101.934 230.539C117.845 246.45 135.028 229.267 150.938 245.178" stroke="white" stroke-opacity="0.08" stroke-width="2" stroke-miterlimit="10"/>
<path d="M-26.3368 -86.6641C-10.4291 -70.7564 -27.6118 -53.5737 -11.7012 -37.6631C4.20946 -21.7525 21.3921 -38.9352 37.2999 -23.0274C53.2076 -7.11965 36.0278 10.0659 51.9384 25.9765C67.8491 41.8871 85.0289 24.7016 100.94 40.6122C116.85 56.5228 99.6674 73.7055 115.575 89.6133C131.483 105.521 148.668 88.3412 164.579 104.252C180.49 120.162 163.307 137.345 179.218 153.256C195.128 169.166 212.311 151.984 228.222 167.894" stroke="white" stroke-opacity="0.08" stroke-width="2" stroke-miterlimit="10"/>
<path d="M-172.325 59.3251C-156.417 75.2329 -173.6 92.4156 -157.689 108.326C-141.779 124.237 -124.596 107.054 -108.688 122.962C-92.7806 138.87 -109.96 156.055 -94.0498 171.966C-78.1392 187.876 -60.9594 170.691 -45.0488 186.601C-29.1382 202.512 -46.3209 219.695 -30.4131 235.603C-14.5054 251.51 2.68021 234.33 18.5908 250.241C34.5015 266.152 17.3188 283.334 33.2294 299.245C49.14 315.156 66.3227 297.973 82.2333 313.884" stroke="white" stroke-opacity="0.08" stroke-width="2" stroke-miterlimit="10"/>
<path d="M-223.849 110.848C-207.941 126.755 -225.124 143.938 -209.213 159.849C-193.302 175.759 -176.12 158.577 -160.212 174.484C-144.304 190.392 -161.484 207.578 -145.573 223.488C-129.663 239.399 -112.483 222.213 -96.5722 238.124C-80.6616 254.035 -97.8443 271.217 -81.9365 287.125C-66.0288 303.033 -48.8432 285.853 -32.9326 301.764C-17.022 317.674 -34.2047 334.857 -18.2941 350.767C-2.38344 366.678 14.7993 349.495 30.7099 365.406" stroke="white" stroke-opacity="0.08" stroke-width="2" stroke-miterlimit="10"/>
<path d="M-120.804 7.80217C-104.896 23.7099 -122.079 40.8926 -106.168 56.8032C-90.2573 72.7139 -73.0746 55.5312 -57.1669 71.4389C-41.2591 87.3467 -58.439 104.532 -42.5284 120.443C-26.6177 136.353 -9.43791 119.168 6.47271 135.079C22.3833 150.989 5.20063 168.172 21.1084 184.08C37.0161 199.987 54.2017 182.808 70.1123 198.718C86.0229 214.629 68.8402 231.811 84.7509 247.722C100.661 263.633 117.844 246.45 133.755 262.361" stroke="white" stroke-opacity="0.08" stroke-width="2" stroke-miterlimit="10"/>
<path d="M-43.5185 -69.4815C-27.6107 -53.5738 -44.7934 -36.3911 -28.8828 -20.4805C-12.9722 -4.56984 4.21051 -21.7525 20.1183 -5.84479C36.026 10.063 18.8462 27.2485 34.7568 43.1591C50.6674 59.0698 67.8472 41.8842 83.7579 57.7948C99.6685 73.7054 82.4858 90.8881 98.3935 106.796C114.301 122.704 131.487 105.524 147.397 121.434C163.308 137.345 146.125 154.528 162.036 170.438C177.947 186.349 195.129 169.166 211.04 185.077" stroke="white" stroke-opacity="0.08" stroke-width="2" stroke-miterlimit="10"/>
<path d="M-249.608 136.609C-233.701 152.517 -250.883 169.699 -234.973 185.61C-219.062 201.52 -201.879 184.338 -185.972 200.246C-170.064 216.153 -187.244 233.339 -171.333 249.249C-155.422 265.16 -138.243 247.975 -122.332 263.885C-106.421 279.796 -123.604 296.978 -107.696 312.886C-91.7886 328.794 -74.603 311.614 -58.6924 327.525C-42.7818 343.435 -59.9644 360.618 -44.0538 376.529C-28.1432 392.439 -10.9605 375.257 4.95011 391.167" stroke="white" stroke-opacity="0.08" stroke-width="2" stroke-miterlimit="10"/>
<path d="M-146.565 33.5639C-130.658 49.4716 -147.84 66.6543 -131.93 82.5649C-116.019 98.4756 -98.8364 81.2929 -82.9286 97.2006C-67.0209 113.108 -84.2007 130.294 -68.2901 146.205C-52.3795 162.115 -35.1996 144.93 -19.289 160.84C-3.37839 176.751 -20.5611 193.934 -4.65334 209.841C11.2544 225.749 28.44 208.569 44.3506 224.48C60.2612 240.39 43.0785 257.573 58.9891 273.484C74.8998 289.394 92.0825 272.212 107.993 288.122" stroke="white" stroke-opacity="0.08" stroke-width="2" stroke-miterlimit="10"/>
<path d="M-69.2802 -43.7203C-53.3724 -27.8125 -70.5551 -10.6298 -54.6445 5.28077C-38.7339 21.1914 -21.5512 4.00869 -5.64346 19.9164C10.2643 35.8242 -6.91553 53.0098 8.99509 68.9204C24.9057 84.831 42.0855 67.6454 57.9961 83.5561C73.9068 99.4667 56.7241 116.649 72.6318 132.557C88.5396 148.465 105.725 131.285 121.636 147.196C137.546 163.106 120.364 180.289 136.274 196.2C152.185 212.11 169.368 194.928 185.278 210.838" stroke="white" stroke-opacity="0.08" stroke-width="2" stroke-miterlimit="10"/>
<path d="M-198.087 85.0863C-182.179 100.994 -199.362 118.177 -183.451 134.087C-167.541 149.998 -150.358 132.815 -134.45 148.723C-118.542 164.631 -135.722 181.816 -119.812 197.727C-103.901 213.638 -86.7211 196.452 -70.8105 212.363C-54.8999 228.273 -72.0826 245.456 -56.1748 261.364C-40.2671 277.272 -23.0815 260.092 -7.17089 276.002C8.73973 291.913 -8.44296 309.096 7.46766 325.006C23.3783 340.917 40.561 323.734 56.4716 339.645" stroke="white" stroke-opacity="0.08" stroke-width="2" stroke-miterlimit="10"/>
<path d="M-95.0419 -17.9591C-79.1342 -2.05131 -96.3169 15.1314 -80.4062 31.042C-64.4956 46.9526 -47.3129 29.7699 -31.4052 45.6777C-15.4974 61.5854 -32.6773 78.771 -16.7666 94.6816C-0.856014 110.592 16.3238 93.4067 32.2344 109.317C48.145 125.228 30.9624 142.411 46.8701 158.318C62.7779 174.226 79.9634 157.046 95.874 172.957C111.785 188.868 94.602 206.05 110.513 221.961C126.423 237.871 143.606 220.689 159.517 236.599" stroke="white" stroke-opacity="0.08" stroke-width="2" stroke-miterlimit="10"/>
<path d="M-17.7587 -95.2428C-1.85096 -79.335 -19.0337 -62.1523 -3.12304 -46.2417C12.7876 -30.3311 29.9703 -47.5138 45.878 -31.606C61.7858 -15.6983 44.606 1.4873 60.5166 17.3979C76.4272 33.3085 93.607 16.123 109.518 32.0336C125.428 47.9442 108.246 65.1269 124.153 81.0347C140.061 96.9424 157.247 79.7626 173.157 95.6732C189.068 111.584 171.885 128.767 187.796 144.677C203.706 160.588 220.889 143.405 236.8 159.316" stroke="white" stroke-opacity="0.08" stroke-width="2" stroke-miterlimit="10"/>
</svg>
