<svg width="491" height="435" viewBox="0 0 491 435" fill="none" xmlns="http://www.w3.org/2000/svg">
<path d="M124.129 756.831C162.27 735.328 185.496 776.526 223.644 755.019C261.792 733.512 238.566 692.314 276.707 670.811C314.848 649.308 338.081 690.502 376.229 668.995C414.377 647.488 391.143 606.294 429.291 584.787C467.439 563.28 490.666 604.478 528.807 582.975C566.948 561.472 543.728 520.27 581.876 498.763C620.024 477.256 643.25 518.454 681.398 496.947C719.546 475.44 696.319 434.243 734.467 412.736" stroke="white" stroke-opacity="0.08" stroke-width="2" stroke-miterlimit="10"/>
<path d="M54.4844 633.299C92.6254 611.796 115.852 652.994 154 631.487C192.148 609.98 168.921 568.782 207.062 547.279C245.203 525.776 268.436 566.97 306.584 545.463C344.732 523.956 321.499 482.762 359.647 461.255C397.795 439.748 421.021 480.946 459.162 459.442C497.303 437.939 474.083 396.738 512.231 375.231C550.379 353.724 573.606 394.922 611.753 373.415C649.901 351.908 626.675 310.71 664.823 289.203" stroke="white" stroke-opacity="0.08" stroke-width="2" stroke-miterlimit="10"/>
<path d="M-49.9843 448C-11.8433 426.497 11.3831 467.695 49.531 446.188C87.6788 424.681 64.4524 383.483 102.593 361.98C140.734 340.477 163.968 381.671 202.116 360.164C240.263 338.657 217.03 297.463 255.178 275.956C293.326 254.449 316.552 295.647 354.693 274.144C392.834 252.641 369.615 211.439 407.763 189.932C445.91 168.425 469.137 209.623 507.285 188.116C545.433 166.609 522.206 125.411 560.354 103.904" stroke="white" stroke-opacity="0.08" stroke-width="2" stroke-miterlimit="10"/>
<path d="M89.3067 695.065C127.448 673.562 150.674 714.76 188.822 693.253C226.97 671.746 203.743 630.548 241.884 609.045C280.025 587.542 303.259 628.736 341.407 607.229C379.554 585.722 356.321 544.528 394.469 523.021C432.617 501.514 455.843 542.712 493.984 521.209C532.125 499.706 508.906 458.504 547.054 436.997C585.201 415.49 608.428 456.688 646.576 435.181C684.724 413.674 661.497 372.476 699.645 350.969" stroke="white" stroke-opacity="0.08" stroke-width="2" stroke-miterlimit="10"/>
<path d="M-15.1621 509.766C22.9789 488.263 46.2054 529.461 84.3532 507.954C122.501 486.447 99.2746 445.249 137.416 423.746C175.557 402.243 198.79 443.437 236.938 421.93C275.086 400.423 251.852 359.229 290 337.722C328.148 316.215 351.375 357.413 389.515 335.91C427.656 314.407 404.437 273.205 442.585 251.698C480.733 230.191 503.959 271.389 542.107 249.882C580.255 228.375 557.028 187.177 595.176 165.67" stroke="white" stroke-opacity="0.08" stroke-width="2" stroke-miterlimit="10"/>
<path d="M19.6602 571.533C57.8012 550.03 81.0277 591.227 119.176 569.72C157.323 548.213 134.097 507.016 172.238 485.513C210.379 464.009 233.612 505.203 271.76 483.696C309.908 462.189 286.675 420.996 324.822 399.489C362.97 377.982 386.197 419.179 424.338 397.676C462.479 376.173 439.259 334.972 477.407 313.465C515.555 291.958 538.781 333.155 576.929 311.649C615.077 290.142 591.851 248.944 629.998 227.437" stroke="white" stroke-opacity="0.08" stroke-width="2" stroke-miterlimit="10"/>
<path d="M-84.8066 386.234C-46.6656 364.731 -23.4391 405.929 14.7087 384.422C52.8566 362.915 29.6301 321.717 67.7711 300.214C105.912 278.711 129.145 319.905 167.293 298.398C205.441 276.891 182.208 235.697 220.356 214.19C258.504 192.683 281.73 233.881 319.871 212.378C358.012 190.875 334.792 149.673 372.94 128.166C411.088 106.659 434.315 147.857 472.462 126.35C510.61 104.843 487.384 63.6454 525.532 42.1384" stroke="white" stroke-opacity="0.08" stroke-width="2" stroke-miterlimit="10"/>
<path d="M112.533 736.263C150.674 714.76 173.901 755.957 212.049 734.45C250.196 712.943 226.97 671.746 265.111 650.243C303.252 628.739 326.485 669.933 364.633 648.426C402.781 626.919 379.548 585.726 417.695 564.219C455.843 542.712 479.07 583.909 517.211 562.406C555.352 540.903 532.132 499.702 570.28 478.195C608.428 456.688 631.654 497.885 669.802 476.378C707.95 454.872 684.724 413.674 722.872 392.167" stroke="white" stroke-opacity="0.08" stroke-width="2" stroke-miterlimit="10"/>
<path d="M42.8867 612.73C81.0277 591.227 104.254 632.425 142.402 610.918C180.55 589.411 157.323 548.213 195.464 526.71C233.605 505.207 256.839 546.401 294.987 524.894C333.134 503.387 309.901 462.193 348.049 440.686C386.197 419.179 409.423 460.377 447.564 438.874C485.705 417.371 462.486 376.169 500.634 354.662C538.781 333.155 562.008 374.353 600.156 352.846C638.304 331.339 615.077 290.141 653.225 268.635" stroke="white" stroke-opacity="0.08" stroke-width="2" stroke-miterlimit="10"/>
<path d="M-61.58 427.432C-23.4391 405.928 -0.212581 447.126 37.9353 425.619C76.0831 404.112 52.8567 362.915 90.9977 341.411C129.139 319.908 152.372 361.102 190.52 339.595C228.668 318.088 205.434 276.894 243.582 255.388C281.73 233.881 304.957 275.078 343.098 253.575C381.239 232.072 358.019 190.87 396.167 169.364C434.315 147.857 457.541 189.054 495.689 167.547C533.837 146.04 510.61 104.843 548.758 83.3357" stroke="white" stroke-opacity="0.08" stroke-width="2" stroke-miterlimit="10"/>
<path d="M77.709 674.496C115.85 652.993 139.076 694.191 177.224 672.684C215.372 651.177 192.146 609.979 230.287 588.476C268.428 566.973 291.661 608.167 329.809 586.66C367.957 565.153 344.723 523.959 382.871 502.452C421.019 480.945 444.246 522.143 482.387 500.64C520.528 479.137 497.308 437.935 535.456 416.428C573.604 394.921 596.83 436.119 634.978 414.612C673.126 393.105 649.899 351.907 688.047 330.4" stroke="white" stroke-opacity="0.08" stroke-width="2" stroke-miterlimit="10"/>
<path d="M-26.7578 489.198C11.3832 467.695 34.6097 508.892 72.7576 487.385C110.905 465.879 87.679 424.681 125.82 403.178C163.961 381.675 187.194 422.868 225.342 401.361C263.49 379.855 240.257 338.661 278.405 317.154C316.552 295.647 339.779 336.844 377.92 315.341C416.061 293.838 392.841 252.637 430.989 231.13C469.137 209.623 492.363 250.821 530.511 229.314C568.659 207.807 545.433 166.609 583.581 145.102" stroke="white" stroke-opacity="0.08" stroke-width="2" stroke-miterlimit="10"/>
<path d="M8.06448 550.965C46.2055 529.462 69.4319 570.66 107.58 549.153C145.728 527.646 122.501 486.448 160.642 464.945C198.783 443.442 222.017 484.636 260.164 463.129C298.312 441.622 275.079 400.428 313.227 378.921C351.375 357.414 374.601 398.612 412.742 377.108C450.883 355.605 427.663 314.404 465.811 292.897C503.959 271.39 527.186 312.588 565.334 291.081C603.481 269.574 580.255 228.376 618.403 206.869" stroke="white" stroke-opacity="0.08" stroke-width="2" stroke-miterlimit="10"/>
<path d="M-96.4023 365.665C-58.2613 344.162 -35.0349 385.36 3.113 363.853C41.2609 342.346 18.0344 301.148 56.1754 279.645C94.3164 258.142 117.55 299.336 155.698 277.829C193.845 256.322 170.612 215.128 208.76 193.621C246.908 172.114 270.134 213.312 308.275 191.809C346.416 170.306 323.197 129.104 361.345 107.597C399.492 86.0905 422.719 127.288 460.867 105.781C499.015 84.2744 475.788 43.0765 513.936 21.5696" stroke="white" stroke-opacity="0.08" stroke-width="2" stroke-miterlimit="10"/>
<path d="M112.533 736.263C150.674 714.76 173.901 755.957 212.049 734.45C250.196 712.943 226.97 671.746 265.111 650.243C303.252 628.739 326.485 669.933 364.633 648.426C402.781 626.919 379.548 585.726 417.695 564.219C455.843 542.712 479.07 583.909 517.211 562.406C555.352 540.903 532.132 499.702 570.28 478.195C608.428 456.688 631.654 497.885 669.802 476.378C707.95 454.872 684.724 413.674 722.872 392.167" stroke="white" stroke-opacity="0.08" stroke-width="2" stroke-miterlimit="10"/>
<path d="M42.8867 612.73C81.0277 591.227 104.254 632.425 142.402 610.918C180.55 589.411 157.323 548.213 195.464 526.71C233.605 505.207 256.839 546.401 294.987 524.894C333.134 503.387 309.901 462.193 348.049 440.686C386.197 419.179 409.423 460.377 447.564 438.874C485.705 417.371 462.486 376.169 500.634 354.662C538.781 333.155 562.008 374.353 600.156 352.846C638.304 331.339 615.077 290.141 653.225 268.635" stroke="white" stroke-opacity="0.08" stroke-width="2" stroke-miterlimit="10"/>
<path d="M-61.58 427.432C-23.4391 405.928 -0.212581 447.126 37.9353 425.619C76.0831 404.112 52.8567 362.915 90.9977 341.411C129.139 319.908 152.372 361.102 190.52 339.595C228.668 318.088 205.434 276.894 243.582 255.388C281.73 233.881 304.957 275.078 343.098 253.575C381.239 232.072 358.019 190.87 396.167 169.364C434.315 147.857 457.541 189.054 495.689 167.547C533.837 146.04 510.61 104.843 548.758 83.3357" stroke="white" stroke-opacity="0.08" stroke-width="2" stroke-miterlimit="10"/>
<path d="M77.709 674.496C115.85 652.993 139.076 694.191 177.224 672.684C215.372 651.177 192.146 609.979 230.287 588.476C268.428 566.973 291.661 608.167 329.809 586.66C367.957 565.153 344.723 523.959 382.871 502.452C421.019 480.945 444.246 522.143 482.387 500.64C520.528 479.137 497.308 437.935 535.456 416.428C573.604 394.921 596.83 436.119 634.978 414.612C673.126 393.105 649.899 351.907 688.047 330.4" stroke="white" stroke-opacity="0.08" stroke-width="2" stroke-miterlimit="10"/>
<path d="M-26.7578 489.198C11.3832 467.695 34.6097 508.892 72.7576 487.385C110.905 465.879 87.679 424.681 125.82 403.178C163.961 381.675 187.194 422.868 225.342 401.361C263.49 379.855 240.257 338.661 278.405 317.154C316.552 295.647 339.779 336.844 377.92 315.341C416.061 293.838 392.841 252.637 430.989 231.13C469.137 209.623 492.363 250.821 530.511 229.314C568.659 207.807 545.433 166.609 583.581 145.102" stroke="white" stroke-opacity="0.08" stroke-width="2" stroke-miterlimit="10"/>
<path d="M8.06448 550.965C46.2055 529.462 69.4319 570.66 107.58 549.153C145.728 527.646 122.501 486.448 160.642 464.945C198.783 443.442 222.017 484.636 260.164 463.129C298.312 441.622 275.079 400.428 313.227 378.921C351.375 357.414 374.601 398.612 412.742 377.108C450.883 355.605 427.663 314.404 465.811 292.897C503.959 271.39 527.186 312.588 565.334 291.081C603.481 269.574 580.255 228.376 618.403 206.869" stroke="white" stroke-opacity="0.08" stroke-width="2" stroke-miterlimit="10"/>
<path d="M-96.4023 365.665C-58.2613 344.162 -35.0349 385.36 3.113 363.853C41.2609 342.346 18.0344 301.148 56.1754 279.645C94.3164 258.142 117.55 299.336 155.698 277.829C193.845 256.322 170.612 215.128 208.76 193.621C246.908 172.114 270.134 213.312 308.275 191.809C346.416 170.306 323.197 129.104 361.345 107.597C399.492 86.0905 422.719 127.288 460.867 105.781C499.015 84.2744 475.788 43.0765 513.936 21.5696" stroke="white" stroke-opacity="0.08" stroke-width="2" stroke-miterlimit="10"/>
<path d="M100.936 715.694C139.077 694.191 162.303 735.389 200.451 713.882C238.599 692.375 215.372 651.177 253.513 629.674C291.654 608.171 314.888 649.365 353.035 627.858C391.183 606.351 367.95 565.157 406.098 543.65C444.246 522.143 467.472 563.341 505.613 541.838C543.754 520.335 520.535 479.133 558.682 457.626C596.83 436.119 620.057 477.317 658.205 455.81C696.352 434.303 673.126 393.105 711.274 371.598" stroke="white" stroke-opacity="0.08" stroke-width="2" stroke-miterlimit="10"/>
<path d="M31.291 592.163C69.432 570.659 92.6585 611.857 130.806 590.35C168.954 568.843 145.728 527.646 183.869 506.142C222.01 484.639 245.243 525.833 283.391 504.326C321.539 482.819 298.305 441.625 336.453 420.118C374.601 398.611 397.828 439.809 435.969 418.306C474.11 396.803 450.89 355.601 489.038 334.094C527.186 312.588 550.412 353.785 588.56 332.278C626.708 310.771 603.481 269.574 641.629 248.067" stroke="white" stroke-opacity="0.08" stroke-width="2" stroke-miterlimit="10"/>
<path d="M-73.1757 406.864C-35.0348 385.361 -11.8083 426.558 26.3396 405.051C64.4874 383.545 41.261 342.347 79.4019 320.844C117.543 299.341 140.776 340.534 178.924 319.028C217.072 297.521 193.839 256.327 231.987 234.82C270.134 213.313 293.361 254.511 331.502 233.007C369.643 211.504 346.423 170.303 384.571 148.796C422.719 127.289 445.945 168.487 484.093 146.98C522.241 125.473 499.015 84.2748 537.163 62.7678" stroke="white" stroke-opacity="0.08" stroke-width="2" stroke-miterlimit="10"/>
<path d="M66.1133 653.928C104.254 632.425 127.481 673.623 165.629 652.116C203.776 630.609 180.55 589.411 218.691 567.908C256.832 546.405 280.065 587.599 318.213 566.092C356.361 544.585 333.128 503.391 371.276 481.884C409.423 460.377 432.65 501.575 470.791 480.072C508.932 458.569 485.712 417.367 523.86 395.86C562.008 374.353 585.234 415.551 623.382 394.044C661.53 372.537 638.304 331.339 676.452 309.832" stroke="white" stroke-opacity="0.08" stroke-width="2" stroke-miterlimit="10"/>
<path d="M-38.3535 468.629C-0.212488 447.126 23.014 488.324 61.1618 466.817C99.3097 445.31 76.0832 404.112 114.224 382.609C152.365 361.106 175.599 402.3 213.746 380.793C251.894 359.286 228.661 318.092 266.809 296.585C304.957 275.078 328.183 316.276 366.324 294.773C404.465 273.27 381.245 232.068 419.393 210.561C457.541 189.054 480.768 230.252 518.916 208.745C557.063 187.238 533.837 146.04 571.985 124.533" stroke="white" stroke-opacity="0.08" stroke-width="2" stroke-miterlimit="10"/>
<path d="M135.76 777.461C173.901 755.958 197.127 797.156 235.275 775.649C273.423 754.142 250.197 712.944 288.337 691.441C326.478 669.938 349.712 711.132 387.86 689.625C426.008 668.118 402.774 626.924 440.922 605.417C479.07 583.91 502.296 625.108 540.437 603.605C578.578 582.102 555.359 540.9 593.507 519.393C631.654 497.886 654.881 539.084 693.029 517.577C731.177 496.07 707.95 454.872 746.098 433.365" stroke="white" stroke-opacity="0.08" stroke-width="2" stroke-miterlimit="10"/>
<path d="M-3.53122 530.395C34.6098 508.892 57.8362 550.09 95.9841 528.583C134.132 507.076 110.905 465.878 149.046 444.375C187.187 422.872 210.421 464.066 248.569 442.559C286.717 421.052 263.483 379.858 301.631 358.351C339.779 336.844 363.005 378.042 401.146 356.539C439.287 335.036 416.068 293.834 454.216 272.327C492.363 250.82 515.59 292.018 553.738 270.511C591.886 249.004 568.659 207.806 606.807 186.299" stroke="white" stroke-opacity="0.08" stroke-width="2" stroke-miterlimit="10"/>
<path d="M-107.998 345.097C-69.857 323.594 -46.6306 364.791 -8.4827 343.284C29.6652 321.777 6.43869 280.58 44.5797 259.077C82.7207 237.573 105.954 278.767 144.102 257.26C182.25 235.753 159.016 194.56 197.164 173.053C235.312 151.546 258.539 192.743 296.68 171.24C334.821 149.737 311.601 108.536 349.749 87.0286C387.897 65.5216 411.123 106.719 449.271 85.2125C487.419 63.7055 464.192 22.5077 502.34 1.00071" stroke="white" stroke-opacity="0.08" stroke-width="2" stroke-miterlimit="10"/>
</svg>
